<?xml version="1.0" encoding="UTF-8" standalone="no"?>
<!-- Created with Inkscape (http://www.inkscape.org/) -->

<svg
   xmlns:dc="http://purl.org/dc/elements/1.1/"
   xmlns:cc="http://creativecommons.org/ns#"
   xmlns:rdf="http://www.w3.org/1999/02/22-rdf-syntax-ns#"
   xmlns:svg="http://www.w3.org/2000/svg"
   xmlns="http://www.w3.org/2000/svg"
   xmlns:xlink="http://www.w3.org/1999/xlink"
   xmlns:sodipodi="http://sodipodi.sourceforge.net/DTD/sodipodi-0.dtd"
   xmlns:inkscape="http://www.inkscape.org/namespaces/inkscape"
   width="204.8"
   height="204.8"
   id="svg2"
   version="1.1"
   inkscape:version="0.92.1 r15371"
   sodipodi:docname="material-icon-base.svg"
   viewBox="0 0 192 192">
  <sodipodi:namedview
     id="base"
     pagecolor="#000000"
     bordercolor="#666666"
     borderopacity="1.0"
     inkscape:pageopacity="0"
     inkscape:pageshadow="2"
     inkscape:zoom="11.87"
     inkscape:cx="98.724366"
     inkscape:cy="108.4784"
     inkscape:document-units="px"
     inkscape:current-layer="layer3"
     showgrid="true"
     inkscape:showpageshadow="false"
     inkscape:window-width="3200"
     inkscape:window-height="1690"
     inkscape:window-x="-12"
     inkscape:window-y="-12"
     inkscape:window-maximized="1"
     showguides="true"
     inkscape:guide-bbox="true"
     inkscape:snap-global="true"
     inkscape:snap-others="true"
     inkscape:snap-grids="false">
    <inkscape:grid
       id="grid3721"
       type="xygrid" />
  </sodipodi:namedview>
  <defs
     id="defs4">
    <linearGradient
       inkscape:collect="always"
       id="linearGradient6090">
      <stop
         style="stop-color:#607d8b;stop-opacity:1;"
         offset="0"
         id="stop6086" />
      <stop
         style="stop-color:#607d8b;stop-opacity:0;"
         offset="1"
         id="stop6088" />
    </linearGradient>
    <linearGradient
       id="linearGradient3804">
      <stop
         id="stop3806"
         offset="0"
         style="stop-color:#ffffff;stop-opacity:1;" />
      <stop
         style="stop-color:#ffffff;stop-opacity:0.5;"
         offset="0.33333333"
         id="stop3814" />
      <stop
         id="stop3808"
         offset="1"
         style="stop-color:#ffffff;stop-opacity:0;" />
    </linearGradient>
    <filter
       inkscape:label="Drop Shadow"
       style="color-interpolation-filters:sRGB"
       id="filter2996">
      <feFlood
         result="flood"
         flood-color="rgb(0,0,0)"
         flood-opacity="0.2"
         id="feFlood2998" />
      <feComposite
         result="composite1"
         operator="in"
         in="flood"
         in2="SourceGraphic"
         id="feComposite3000" />
      <feGaussianBlur
         result="blur"
         stdDeviation="6"
         id="feGaussianBlur3002" />
      <feOffset
         result="offset"
         dy="6"
         dx="0"
         id="feOffset3004" />
      <feComposite
         result="fbSourceGraphic"
         operator="over"
         in="SourceGraphic"
         in2="offset"
         id="feComposite3006" />
      <feColorMatrix
         id="feColorMatrix3008"
         values="0 0 0 -1 0 0 0 0 -1 0 0 0 0 -1 0 0 0 0 1 0"
         in="fbSourceGraphic"
         result="fbSourceGraphicAlpha" />
      <feFlood
         in="fbSourceGraphic"
         result="flood"
         flood-color="rgb(0,0,0)"
         flood-opacity="0.2"
         id="feFlood3010" />
      <feComposite
         result="composite1"
         operator="in"
         in="flood"
         in2="fbSourceGraphic"
         id="feComposite3012" />
      <feGaussianBlur
         result="blur"
         stdDeviation="6"
         id="feGaussianBlur3014" />
      <feOffset
         result="offset"
         dy="6"
         dx="0"
         id="feOffset3016" />
      <feComposite
         result="composite2"
         operator="over"
         in="fbSourceGraphic"
         in2="offset"
         id="feComposite3018" />
    </filter>
    <filter
       inkscape:label="Drop Shadow"
       style="color-interpolation-filters:sRGB"
       id="filter3790">
      <feFlood
         result="flood"
         flood-color="rgb(0,0,0)"
         flood-opacity="0"
         id="feFlood3792" />
      <feComposite
         result="composite1"
         operator="in"
         in="flood"
         in2="SourceGraphic"
         id="feComposite3794" />
      <feOffset
         result="offset"
         dy="0"
         dx="0"
         id="feOffset3796" />
      <feComposite
         result="composite2"
         operator="over"
         in="SourceGraphic"
         in2="offset"
         id="feComposite3798" />
    </filter>
    <linearGradient
       gradientUnits="userSpaceOnUse"
       y2="1051.4781"
       x2="192.35359"
       y1="861.24615"
       x1="0.35359117"
       id="linearGradient3810"
       xlink:href="#linearGradient3804"
       inkscape:collect="always" />
    <linearGradient
       inkscape:collect="always"
       xlink:href="#linearGradient6090"
       id="linearGradient6092"
       x1="126.03201"
       y1="100.16648"
       x2="193.97641"
       y2="168.78485"
       gradientUnits="userSpaceOnUse" />
  </defs>
  <metadata
     id="metadata7">
    <rdf:RDF>
      <cc:Work
         rdf:about="">
        <dc:format>image/svg+xml</dc:format>
        <dc:type
           rdf:resource="http://purl.org/dc/dcmitype/StillImage" />
        <dc:title />
      </cc:Work>
    </rdf:RDF>
  </metadata>
  <g
     sodipodi:insensitive="true"
     style="display:inline"
     transform="translate(0,-860.36218)"
     id="layer1"
     inkscape:groupmode="layer"
     inkscape:label="Material Background">
    <rect
       rx="12.081006"
       y="880.36218"
       x="20"
       height="152"
       width="152"
       id="rect2987"
       style="fill:#2196f3;fill-opacity:1;stroke:none" />
  </g>
  <g
     style="display:inline"
     inkscape:label="Material Foreground"
     id="layer3"
     inkscape:groupmode="layer">
    <rect
       transform="translate(0,-860.36218)"
       y="904.36218"
       x="44"
       height="104"
       width="104"
       id="rect2994"
       style="fill:#ffffff;fill-opacity:1;stroke:none;stroke-width:0;stroke-miterlimit:4;stroke-dasharray:none;filter:url(#filter2996)" />
    <path
       sodipodi:nodetypes="cccccc"
       inkscape:connector-curvature="0"
       id="path4720"
       d="M 61.738801,117.52891 92.812499,147.9375 H 148.125 v -31.875 L 89.999999,57.937502 Z"
       style="opacity:0.1;fill:#000000;fill-opacity:1;stroke:none;stroke-width:0.9375px;stroke-linecap:butt;stroke-linejoin:miter;stroke-opacity:1" />
    <path
       inkscape:connector-curvature="0"
       id="path4722"
       d="m 121.875,80.437502 26.25,26.249998 v 41.25 H 79.687499 Z"
       style="opacity:0.1;fill:#000000;fill-opacity:1;stroke:none;stroke-width:0.9375px;stroke-linecap:butt;stroke-linejoin:miter;stroke-opacity:1" />
    <path
       inkscape:connector-curvature="0"
       id="path3725"
       d="M 79.687499,147.9375 121.875,80.437502 148.125,108.5625 v 39.375 z"
       style="fill:#4caf50;fill-opacity:1;stroke:#000000;stroke-width:0;stroke-linecap:butt;stroke-linejoin:miter;stroke-miterlimit:4;stroke-dasharray:none;stroke-opacity:1" />
    <path
       inkscape:connector-curvature="0"
       id="path4532"
       d="m 110.625,98.249999 8.4375,2.812501 7.5,-3.750001 7.5,2.812501 1.875,-4.687501 -14.0625,-14.999997 z"
       style="fill:#607d8b;fill-opacity:1;stroke:#000000;stroke-width:0;stroke-linecap:butt;stroke-linejoin:miter;stroke-miterlimit:4;stroke-dasharray:none;stroke-opacity:1" />
    <path
       sodipodi:nodetypes="cccccc"
       inkscape:connector-curvature="0"
       id="path4724"
       d="M 104.78208,107.8747 144.75635,147.93977 148,148 l 0.0932,-39.48971 -3.66737,-3.68578 z"
       style="opacity:0.1;fill:#000000;fill-opacity:1;stroke:none;stroke-width:0.025;stroke-linecap:butt;stroke-linejoin:miter;stroke-miterlimit:4;stroke-dasharray:none;stroke-opacity:1" />
    <path
       sodipodi:nodetypes="cccccccc"
       inkscape:connector-curvature="0"
       id="path4534"
       d="m 104.6822,107.852 c 24.48814,12.40463 35.0961,-1.3461 39.7836,-3.2211 l -8.5283,-9.193401 -1.875,4.687501 -7.5,-2.812501 -7.5,3.750001 -8.4375,-2.812501 z"
       style="fill:#8bc34a;fill-opacity:1;stroke:none;stroke-width:0.9375px;stroke-linecap:butt;stroke-linejoin:miter;stroke-opacity:1" />
    <g
       transform="matrix(1.2458492,0.31188999,-0.27519299,1.4119834,18.296894,-58.379102)"
       id="g4607">
      <rect
         style="fill:#ffc107;fill-opacity:1;stroke:#000000;stroke-width:0.39774752;stroke-miterlimit:4;stroke-dasharray:none;stroke-opacity:1"
         id="rect4536"
         width="14.062498"
         height="45"
         x="59.0625"
         y="66.375"
         ry="1.0000019" />
      <path
         style="fill:none;stroke:#000000;stroke-width:0.9375px;stroke-linecap:butt;stroke-linejoin:miter;stroke-opacity:1"
         d="m 69.374999,107.625 c 3.75,0 3.75,0 3.75,0"
         id="path4538"
         inkscape:connector-curvature="0" />
      <path
         style="display:inline;fill:none;stroke:#000000;stroke-width:0.9375px;stroke-linecap:butt;stroke-linejoin:miter;stroke-opacity:1"
         d="m 69.374999,102.9375 c 3.75,0 3.75,0 3.75,0"
         id="path4538-6"
         inkscape:connector-curvature="0"
         inkscape:transform-center-x="2.2042615"
         inkscape:transform-center-y="1.8598457" />
      <path
         style="display:inline;fill:none;stroke:#000000;stroke-width:0.9375px;stroke-linecap:butt;stroke-linejoin:miter;stroke-opacity:1"
         d="m 69.374999,98.250001 c 3.75,0 3.75,0 3.75,0"
         id="path4538-5"
         inkscape:connector-curvature="0"
         inkscape:transform-center-x="-1.7220793"
         inkscape:transform-center-y="1.5154298" />
      <path
         style="display:inline;fill:none;stroke:#000000;stroke-width:0.9375px;stroke-linecap:butt;stroke-linejoin:miter;stroke-opacity:1"
         d="m 69.374999,93.562501 c 3.75,0 3.75,0 3.75,0"
         id="path4538-8"
         inkscape:connector-curvature="0" />
      <path
         style="display:inline;fill:none;stroke:#000000;stroke-width:0.9375px;stroke-linecap:butt;stroke-linejoin:miter;stroke-opacity:1"
         d="m 69.374999,88.875002 c 3.75,0 3.75,0 3.75,0"
         id="path4538-83"
         inkscape:connector-curvature="0" />
      <path
         style="display:inline;fill:none;stroke:#000000;stroke-width:0.9375px;stroke-linecap:butt;stroke-linejoin:miter;stroke-opacity:1"
         d="m 69.374999,84.187502 c 3.75,0 3.75,0 3.75,0"
         id="path4538-0"
         inkscape:connector-curvature="0" />
      <path
         style="display:inline;fill:none;stroke:#000000;stroke-width:0.9375px;stroke-linecap:butt;stroke-linejoin:miter;stroke-opacity:1"
         d="m 69.374999,79.500002 c 3.75,0 3.75,0 3.75,0"
         id="path4538-7"
         inkscape:connector-curvature="0" />
      <path
         style="display:inline;fill:none;stroke:#000000;stroke-width:0.9375px;stroke-linecap:butt;stroke-linejoin:miter;stroke-opacity:1"
         d="m 69.374999,74.812502 c 3.75,0 3.75,0 3.75,0"
         id="path4538-69"
         inkscape:connector-curvature="0" />
      <path
         style="display:inline;fill:none;stroke:#000000;stroke-width:0.9375px;stroke-linecap:butt;stroke-linejoin:miter;stroke-opacity:1"
         d="m 69.374999,70.125002 c 3.75,0 3.75,0 3.75,0"
         id="path4538-06"
         inkscape:connector-curvature="0" />
    </g>
    <path
       style="fill:#607d8b;fill-opacity:1;stroke:#000000;stroke-width:0;stroke-linecap:butt;stroke-linejoin:miter;stroke-miterlimit:4;stroke-dasharray:none;stroke-opacity:1"
       d="m 316.875,304.5 8.4375,2.8125 7.5,-3.75 7.5,2.8125 1.875,-4.6875 -14.0625,-15 z"
       id="path5180"
       inkscape:connector-curvature="0" />
    <path
       style="fill:url(#linearGradient6092);fill-opacity:1;stroke:#000000;stroke-width:0;stroke-linecap:butt;stroke-linejoin:miter;stroke-miterlimit:4;stroke-dasharray:none;stroke-opacity:1;opacity:0.2"
       d="M 132.18359 87.984375 L 120.18359 106.98438 L 123.11133 107.96094 L 122.35547 109.15625 L 125.26953 110.12695 L 124.51758 111.31836 L 127.41797 112.28516 L 126.66992 113.46875 L 129.55273 114.42969 L 128.80859 115.60938 L 131.67773 116.56641 L 130.9375 117.73828 L 133.79297 118.68945 L 133.05664 119.85742 L 135.89648 120.80469 L 135.16406 121.96484 L 137.98828 122.90625 L 137.25977 124.06055 L 140.07031 124.99805 L 139.3457 126.14648 L 142.14062 127.07812 L 141.41992 128.2207 L 144.20312 129.14844 L 143.48438 130.28516 L 146.25195 131.20703 L 145.53711 132.33789 L 148.28906 133.25586 L 147.58008 134.37891 L 150.31836 135.29102 L 149.61133 136.41016 L 152.33398 137.31836 L 151.63086 138.43164 L 154.33789 139.33398 L 153.64062 140.43945 L 156.33398 141.33789 L 155.63867 142.43945 L 158.31836 143.33203 L 157.62695 144.42578 L 160.29102 145.31445 L 159.60352 146.40234 L 162.25195 147.28516 L 161.56836 148.36914 L 164.20312 149.24805 L 163.52344 150.32422 L 166.14258 151.19727 L 165.4668 152.26758 L 168.07227 153.13672 L 167.40039 154.20117 L 169.99023 155.06445 L 169.32227 156.12305 L 171.90039 156.98242 L 171.23438 158.03516 L 173.79492 158.88867 L 173.13477 159.93555 L 175.67969 160.7832 L 175.02344 161.82422 L 177.55664 162.66797 L 176.90234 163.70312 L 179.41992 164.54297 L 178.77148 165.57031 L 181.27344 166.4043 L 180.62695 167.42773 L 183.11719 168.25781 L 182.47461 169.27344 L 184.94727 170.09766 L 184.30859 171.10938 L 186.76758 171.92969 L 186.13281 172.93359 L 188.57812 173.74805 L 187.94727 174.74609 L 190.375 175.55469 L 189.74805 176.54883 L 192.16406 177.35352 L 191.54102 178.33984 L 193.93945 179.13867 L 193.32031 180.12109 L 195.70508 180.91602 L 195.08984 181.89062 L 197.46094 182.68164 L 196.84961 183.65039 L 199.20508 184.43555 L 198.59766 185.39844 L 200.9375 186.17773 L 200.33398 187.13477 L 202.66016 187.91016 L 202.06055 188.86133 L 204.37109 189.63086 L 203.77539 190.57617 L 206.07422 191.3418 L 205.48047 192.28125 L 207.76367 193.04297 L 207.17383 193.97461 L 209.44141 194.73047 L 208.85742 195.65625 L 211.11133 196.4082 L 210.5293 197.32812 L 212.76758 198.07422 L 212.18945 198.98828 L 214.41406 199.73047 L 213.83984 200.63867 L 216.04883 201.375 L 215.47852 202.27734 L 217.67383 203.00977 L 217.10742 203.90625 L 219.28711 204.63281 L 218.72461 205.52344 L 220.88867 206.24414 L 220.33008 207.13086 L 222.48047 207.84766 L 221.92578 208.72656 L 224.06055 209.4375 L 223.50977 210.31055 L 225.63086 211.01758 L 225.08398 211.88477 L 227.18945 212.58594 L 226.64648 213.44727 L 228.73828 214.14453 L 228.19922 214.99805 L 230.27539 215.68945 L 229.74023 216.53906 L 231.80273 217.22656 L 231.26953 218.07031 L 233.31836 218.75391 L 232.78906 219.58984 L 234.82227 220.26758 L 234.29688 221.09766 L 236.31641 221.77148 L 235.79492 222.5957 L 237.79883 223.26367 L 237.28125 224.08203 L 239.26953 224.74414 L 238.75781 225.55664 L 240.73242 226.21484 L 240.22266 227.02148 L 242.18164 227.67383 L 241.67578 228.47656 L 243.62109 229.125 L 243.11914 229.91992 L 245.04883 230.5625 L 244.55078 231.35156 L 246.4668 231.99023 L 245.97266 232.77344 L 247.87305 233.40625 L 247.38281 234.18359 L 249.26953 234.8125 L 248.7832 235.58203 L 250.6543 236.20508 L 250.17188 236.9707 L 252.0293 237.58984 L 251.54883 238.34961 L 253.39062 238.96289 L 252.91602 239.71484 L 254.74414 240.32422 L 254.27148 241.07227 L 256.08398 241.67578 L 255.61719 242.41602 L 257.41602 243.01562 L 256.95117 243.75 L 258.73438 244.34375 L 258.27344 245.07422 L 260.04297 245.66406 L 259.58594 246.38672 L 261.33984 246.9707 L 260.88672 247.6875 L 262.62695 248.26758 L 262.17773 248.97852 L 263.90234 249.55273 L 263.45703 250.25781 L 265.16797 250.82812 L 264.72656 251.52734 L 266.42188 252.0918 L 265.98438 252.78516 L 267.66602 253.3457 L 267.23242 254.03125 L 268.89648 254.58594 L 268.4668 255.26758 L 270.11914 255.81836 L 269.69336 256.49219 L 271.33008 257.03711 L 270.90625 257.70703 L 272.5293 258.24805 L 272.11133 258.91016 L 273.71875 259.44531 L 273.30273 260.10352 L 274.89453 260.63477 L 274.48438 261.28516 L 276.0625 261.81055 L 275.65625 262.45508 L 277.21875 262.97656 L 276.81445 263.61523 L 278.36328 264.13086 L 277.96484 264.76367 L 279.49805 265.27539 L 279.10156 265.90234 L 280.62305 266.41016 L 280.23047 267.0293 L 281.73438 267.53125 L 281.3457 268.14648 L 282.83594 268.64258 L 282.45117 269.25195 L 283.92773 269.74414 L 283.54688 270.3457 L 285.00586 270.83203 L 284.62891 271.42969 L 286.07617 271.91211 L 285.70312 272.50195 L 287.13281 272.97852 L 286.76367 273.56445 L 288.17969 274.03711 L 287.81445 274.61523 L 289.2168 275.08203 L 288.85547 275.6543 L 290.24219 276.11719 L 289.88477 276.68359 L 291.25781 277.14062 L 290.90234 277.70312 L 292.25977 278.15625 L 291.91016 278.71094 L 293.25195 279.1582 L 292.90625 279.70703 L 294.23438 280.15039 L 293.89258 280.69141 L 295.20703 281.12891 L 294.86719 281.66602 L 296.16602 282.09961 L 295.83008 282.63086 L 297.11523 283.05859 L 296.7832 283.58398 L 298.05273 284.00781 L 297.72656 284.52539 L 298.98047 284.94336 L 298.65625 285.45703 L 299.89844 285.87109 L 299.57812 286.37695 L 300.80273 286.78516 L 300.48633 287.28711 L 301.69727 287.69141 L 301.38477 288.18555 L 302.58203 288.58398 L 302.27344 289.07227 L 303.45312 289.46484 L 303.14844 289.94922 L 304.31641 290.33789 L 304.01562 290.81445 L 305.16797 291.19922 L 304.87109 291.66992 L 306.00781 292.04883 L 305.71484 292.51367 L 306.83789 292.88867 L 306.54688 293.34766 L 307.6543 293.7168 L 307.36914 294.16992 L 308.46289 294.53516 L 308.18164 294.98047 L 309.25977 295.33984 L 308.98047 295.78125 L 310.04492 296.13672 L 309.77148 296.57031 L 310.82031 296.91992 L 310.54883 297.34961 L 311.58594 297.69531 L 311.31836 298.11719 L 312.33789 298.45703 L 312.07422 298.875 L 313.08008 299.21094 L 312.82031 299.62109 L 313.81055 299.95117 L 313.55469 300.35547 L 314.53125 300.68164 L 314.2793 301.08008 L 315.24023 301.40039 L 314.99219 301.79297 L 315.93945 302.10938 L 315.69531 302.49609 L 316.62695 302.80664 L 316.38672 303.1875 L 317.30469 303.49414 L 317.06836 303.86719 L 317.9707 304.16797 L 317.73828 304.53711 L 318.62695 304.83398 L 318.39648 305.19727 L 319.26953 305.48828 L 319.04492 305.84375 L 319.9043 306.13086 L 319.68164 306.48242 L 320.52539 306.76367 L 320.30859 307.10742 L 321.13867 307.38477 L 320.92383 307.72266 L 321.73828 307.99414 L 321.52734 308.32812 L 322.32812 308.5957 L 322.12109 308.92188 L 322.90625 309.18359 L 322.70312 309.50391 L 323.47461 309.76172 L 323.27539 310.07617 L 324.03125 310.32812 L 323.83594 310.63672 L 324.57812 310.88477 L 324.38672 311.18555 L 325.11328 311.42773 L 324.92578 311.72461 L 325.63672 311.96094 L 325.45312 312.25391 L 326.15039 312.48633 L 325.9707 312.77148 L 326.65234 312.99805 L 326.47656 313.27734 L 327.14453 313.5 L 326.97266 313.77344 L 327.625 313.99023 L 327.45703 314.25781 L 328.0957 314.4707 L 327.93164 314.73047 L 328.55469 314.9375 L 328.39453 315.19336 L 329.00391 315.39648 L 328.8457 315.64648 L 329.44141 315.8457 L 329.28711 316.08789 L 329.86719 316.28125 L 329.7168 316.51758 L 330.2832 316.70703 L 330.13672 316.9375 L 330.6875 317.12109 L 330.54492 317.3457 L 331.08008 317.52344 L 330.94336 317.74219 L 331.46484 317.91602 L 331.33008 318.12891 L 331.83594 318.29688 L 331.70508 318.50586 L 332.19727 318.66992 L 332.07031 318.86914 L 332.54688 319.02734 L 332.42383 319.22461 L 332.88672 319.37891 L 332.76758 319.56641 L 333.21484 319.71484 L 333.09961 319.89844 L 333.5332 320.04297 L 333.41992 320.2207 L 333.83789 320.35938 L 333.73047 320.53125 L 334.13477 320.66602 L 334.03125 320.83008 L 334.41992 320.95898 L 334.31836 321.11914 L 334.69141 321.24414 L 334.5957 321.39648 L 334.95703 321.51758 L 334.86328 321.66406 L 335.20898 321.7793 L 335.11914 321.91992 L 335.44922 322.0293 L 335.36523 322.16406 L 335.67969 322.26953 L 335.59766 322.39844 L 335.89844 322.49805 L 335.82227 322.62109 L 336.10938 322.7168 L 336.03516 322.83398 L 336.30664 322.92383 L 336.23633 323.03516 L 336.49219 323.12109 L 336.42578 323.22656 L 336.66797 323.30664 L 336.60547 323.40625 L 336.83398 323.48242 L 336.77539 323.57422 L 336.98828 323.64453 L 336.93359 323.73242 L 337.13086 323.79883 L 337.08008 323.87891 L 337.26367 323.93945 L 337.2168 324.01562 L 337.38477 324.07227 L 337.3418 324.14062 L 337.49609 324.19141 L 337.45508 324.25586 L 337.59375 324.30273 L 337.55859 324.35938 L 337.68359 324.40039 L 337.65234 324.45117 L 337.76172 324.48828 L 337.73242 324.5332 L 337.82812 324.56445 L 337.80469 324.60352 L 337.88477 324.63086 L 337.86328 324.66406 L 337.92969 324.68555 L 337.91211 324.71289 L 337.96484 324.73047 L 337.95117 324.75195 L 337.98633 324.76367 L 337.97852 324.77734 L 338 324.78516 L 337.99414 324.79492 L 346.99414 327.79492 L 354.99414 323.79492 L 362.99414 326.79492 L 364.99414 321.79492 L 364.97852 321.77734 L 349.99414 305.79492 L 349.97852 305.77734 L 349.97656 305.7793 L 349.95117 305.75195 L 349.94922 305.75391 L 349.91211 305.71289 L 349.91016 305.7168 L 349.80469 305.60352 L 349.80273 305.60742 L 349.73242 305.5332 L 349.73047 305.53516 L 349.65234 305.45117 L 349.64844 305.45703 L 349.55859 305.35938 L 349.55664 305.36328 L 349.45508 305.25586 L 349.45312 305.25977 L 349.3418 305.14062 L 349.33789 305.14648 L 349.2168 305.01562 L 349.21289 305.02148 L 349.08008 304.87891 L 349.07617 304.88477 L 348.93359 304.73242 L 348.92969 304.73828 L 348.77539 304.57422 L 348.76953 304.58203 L 348.60547 304.40625 L 348.60156 304.41406 L 348.42578 304.22656 L 348.42188 304.23242 L 348.23633 304.03516 L 348.23047 304.04297 L 348.03516 303.83398 L 348.0293 303.8418 L 347.82227 303.62109 L 347.81641 303.63086 L 347.59766 303.39844 L 347.5918 303.40625 L 347.36523 303.16406 L 347.35742 303.17578 L 347.11914 302.91992 L 347.11328 302.92969 L 346.86328 302.66406 L 346.85742 302.67383 L 346.5957 302.39648 L 346.58789 302.4082 L 346.31836 302.11914 L 346.3125 302.12891 L 346.03125 301.83008 L 346.02344 301.84375 L 345.73047 301.53125 L 345.72266 301.54297 L 345.41992 301.2207 L 345.41211 301.23242 L 345.09961 300.89844 L 345.0918 300.91211 L 344.76758 300.56641 L 344.75781 300.58203 L 344.42383 300.22461 L 344.41602 300.23828 L 344.07031 299.86914 L 344.06055 299.88477 L 343.70508 299.50586 L 343.69727 299.51953 L 343.33008 299.12891 L 343.32031 299.14453 L 342.94336 298.74219 L 342.93164 298.75977 L 342.54492 298.3457 L 342.53516 298.36133 L 342.13672 297.9375 L 342.12695 297.95508 L 341.7168 297.51758 L 341.70508 297.53516 L 341.28711 297.08789 L 341.27539 297.10547 L 340.8457 296.64648 L 340.83594 296.66406 L 340.39453 296.19336 L 340.38281 296.21094 L 339.93164 295.73047 L 339.91992 295.75 L 339.45703 295.25781 L 339.44531 295.27734 L 338.97266 294.77344 L 338.96094 294.79297 L 338.47656 294.27734 L 338.46289 294.29688 L 337.9707 293.77148 L 337.95703 293.79297 L 337.45312 293.25391 L 337.44141 293.27344 L 336.92578 292.72461 L 336.91211 292.74609 L 336.38672 292.18555 L 336.37305 292.20898 L 335.83594 291.63672 L 335.82227 291.6582 L 335.27539 291.07617 L 335.26172 291.09961 L 334.70312 290.50391 L 334.68945 290.52734 L 334.12109 289.92188 L 334.10547 289.94531 L 333.52734 289.32812 L 333.51367 289.35156 L 332.92383 288.72266 L 332.9082 288.74805 L 332.30859 288.10742 L 332.29297 288.13281 L 331.68164 287.48242 L 331.66602 287.50586 L 331.04492 286.84375 L 331.02734 286.87109 L 330.39648 286.19727 L 330.38086 286.22266 L 329.73828 285.53711 L 329.7207 285.56445 L 329.06836 284.86719 L 329.05078 284.89453 L 328.38672 284.1875 L 328.36914 284.21484 L 327.69531 283.49609 L 327.67773 283.52344 L 326.99219 282.79297 L 326.97461 282.82227 L 326.2793 282.08008 L 326.26172 282.10938 L 325.55469 281.35547 L 325.53711 281.38477 L 324.82031 280.62109 L 324.80078 280.65039 L 324.07422 279.875 L 324.05664 279.9043 L 323.31836 279.11719 L 323.29883 279.14844 L 322.54883 278.34961 L 322.5293 278.37891 L 321.77148 277.57031 L 321.75 277.60352 L 320.98047 276.78125 L 320.96094 276.8125 L 320.18164 275.98047 L 320.16016 276.01367 L 319.36914 275.16992 L 319.34766 275.20312 L 318.54688 274.34766 L 318.52734 274.37891 L 317.71484 273.51367 L 317.69336 273.54688 L 316.87109 272.66992 L 316.84961 272.70312 L 316.01562 271.81445 L 315.99219 271.84961 L 315.14844 270.94922 L 315.12695 270.98242 L 314.27344 270.07227 L 314.25 270.10938 L 313.38477 269.18555 L 313.36133 269.2207 L 312.48633 268.28711 L 312.46484 268.32227 L 311.57812 267.37695 L 311.55469 267.41406 L 310.65625 266.45703 L 310.63281 266.49219 L 309.72656 265.52539 L 309.70117 265.56445 L 308.7832 264.58398 L 308.75977 264.62109 L 307.83008 263.63086 L 307.80664 263.66797 L 306.86719 262.66602 L 306.8418 262.70508 L 305.89258 261.69141 L 305.86719 261.73242 L 304.90625 260.70703 L 304.88086 260.74609 L 303.91016 259.71094 L 303.88477 259.75195 L 302.90234 258.70312 L 302.87695 258.74219 L 301.88477 257.68359 L 301.85938 257.72461 L 300.85547 256.6543 L 300.82812 256.69727 L 299.81445 255.61523 L 299.78711 255.65625 L 298.76367 254.56445 L 298.73828 254.60547 L 297.70312 253.50195 L 297.67578 253.54688 L 296.62891 252.42969 L 296.60156 252.4707 L 295.54688 251.3457 L 295.51953 251.39062 L 294.45117 250.25195 L 294.42383 250.29688 L 293.3457 249.14648 L 293.31836 249.18945 L 292.23047 248.0293 L 292.20117 248.07617 L 291.10156 246.90234 L 291.07422 246.94727 L 289.96484 245.76367 L 289.93555 245.81055 L 288.81445 244.61523 L 288.78516 244.66016 L 287.65625 243.45508 L 287.62695 243.50195 L 286.48438 242.28516 L 286.45508 242.33203 L 285.30273 241.10352 L 285.27344 241.15039 L 284.11133 239.91016 L 284.08008 239.95898 L 282.90625 238.70703 L 282.87695 238.75391 L 281.69336 237.49219 L 281.66211 237.54297 L 280.4668 236.26758 L 280.43555 236.31641 L 279.23242 235.03125 L 279.20117 235.08203 L 277.98438 233.78516 L 277.95312 233.83594 L 276.72656 232.52734 L 276.69531 232.57812 L 275.45703 231.25781 L 275.42578 231.30859 L 274.17773 229.97852 L 274.14453 230.0293 L 272.88672 228.6875 L 272.85352 228.74023 L 271.58594 227.38672 L 271.55273 227.43945 L 270.27344 226.07422 L 270.24023 226.125 L 268.95117 224.75 L 268.91797 224.80273 L 267.61719 223.41602 L 267.58203 223.4707 L 266.27148 222.07227 L 266.23828 222.125 L 264.91602 220.71484 L 264.88086 220.76953 L 263.54883 219.34961 L 263.51562 219.40234 L 262.17188 217.9707 L 262.13672 218.02539 L 260.7832 216.58203 L 260.74805 216.63867 L 259.38281 215.18359 L 259.34766 215.24023 L 257.97266 213.77344 L 257.9375 213.83008 L 256.55078 212.35156 L 256.51562 212.4082 L 255.11914 210.91992 L 255.08203 210.97656 L 253.67578 209.47656 L 253.64062 209.5332 L 252.22266 208.02148 L 252.18555 208.08008 L 250.75781 206.55664 L 250.7207 206.61719 L 249.28125 205.08203 L 249.24414 205.14062 L 247.79492 203.5957 L 247.75781 203.65625 L 246.29688 202.09766 L 246.25977 202.1582 L 244.78906 200.58984 L 244.75 200.65039 L 243.26953 199.07031 L 243.23242 199.13086 L 241.74023 197.53906 L 241.70117 197.59961 L 240.19922 195.99805 L 240.16016 196.06055 L 238.64648 194.44727 L 238.60742 194.50977 L 237.08398 192.88477 L 237.04492 192.94727 L 235.50977 191.31055 L 235.4707 191.37305 L 233.92578 189.72656 L 233.88477 189.79102 L 232.33008 188.13086 L 232.29102 188.19336 L 230.72461 186.52344 L 230.68359 186.58789 L 229.10742 184.90625 L 229.06641 184.9707 L 227.47852 183.27734 L 227.4375 183.3418 L 225.83984 181.63867 L 225.79688 181.70508 L 224.18945 179.99023 L 224.14844 180.05469 L 222.5293 178.32812 L 222.48633 178.39453 L 220.85742 176.65625 L 220.81445 176.72461 L 219.17383 174.97461 L 219.13086 175.04297 L 217.48047 173.28125 L 217.4375 173.34961 L 215.77539 171.57617 L 215.73242 171.64453 L 214.06055 169.86133 L 214.01758 169.92969 L 212.33398 168.13477 L 212.29102 168.20312 L 210.59766 166.39844 L 210.55273 166.46875 L 208.84961 164.65039 L 208.80469 164.7207 L 207.08984 162.89062 L 207.04492 162.96094 L 205.32031 161.12109 L 205.27539 161.19141 L 203.54102 159.33984 L 203.49609 159.41211 L 201.74805 157.54883 L 201.70312 157.61914 L 199.94727 155.74609 L 199.90039 155.82031 L 198.13281 153.93359 L 198.08789 154.00586 L 196.30859 152.10938 L 196.26367 152.18164 L 194.47461 150.27344 L 194.42773 150.34766 L 192.62695 148.42773 L 192.58008 148.5 L 190.77148 146.57031 L 190.72461 146.64648 L 188.90234 144.70312 L 188.85547 144.77734 L 187.02344 142.82422 L 186.97656 142.90039 L 185.13477 140.93555 L 185.08789 141.01172 L 183.23438 139.03516 L 183.18555 139.11133 L 181.32227 137.12305 L 181.27344 137.19922 L 179.40039 135.20117 L 179.35156 135.27734 L 177.4668 133.26758 L 177.41797 133.3457 L 175.52344 131.32422 L 175.47461 131.40234 L 173.56836 129.36914 L 173.51953 129.44531 L 171.60352 127.40234 L 171.55469 127.48047 L 169.62695 125.42578 L 169.57617 125.50586 L 167.63867 123.43945 L 167.58984 123.51758 L 165.64062 121.43945 L 165.58984 121.52148 L 163.63086 119.43164 L 163.58008 119.51172 L 161.61133 117.41016 L 161.56055 117.49023 L 159.58008 115.37891 L 159.52734 115.46094 L 157.53711 113.33789 L 157.48633 113.41992 L 155.48438 111.28516 L 155.43164 111.36719 L 153.41992 109.2207 L 153.36719 109.30273 L 151.3457 107.14648 L 151.29297 107.23047 L 149.25977 105.06055 L 149.20703 105.14453 L 147.16406 102.96484 L 147.11133 103.04883 L 145.05664 100.85742 L 145.00391 100.94141 L 142.9375 98.738281 L 142.88477 98.822266 L 140.80859 96.609375 L 140.75586 96.693359 L 138.66992 94.46875 L 138.61523 94.554688 L 136.51758 92.318359 L 136.46289 92.404297 L 134.35547 90.15625 L 134.30078 90.242188 L 132.18359 87.984375 z "
       transform="scale(0.93749999)"
       id="path5229" />
  </g>
  <g
     sodipodi:insensitive="true"
     style="display:inline"
     inkscape:label="Finish"
     id="layer2"
     inkscape:groupmode="layer">
    <rect
       y="860.36218"
       x="0"
       height="192"
       width="192"
       id="rect3802"
       style="opacity:0.1;fill:url(#linearGradient3810);fill-opacity:1;stroke:none"
       transform="translate(0,-860.36218)" />
  </g>
</svg>
